<svg xmlns="http://www.w3.org/2000/svg" viewBox="0 0 2362 2362">
    <style type="text/css">.st0{fill:#EE7600;}</style>
    <path class="st0" d="M1078 2090l-485 -841 -486 -841 971 0 50 0 -102 172 -120 201 -116 -201 -360 0 324 545 152 255 217 -365 147 87 -265 446 73 122 324 -545 41 -70 174 101 -53 93 -486 841zm1126 -1554l25 -42 -42 -24 -24 41 41 25zm-900 413l64 -105 -106 -64 -63 106 105 63zm207 37l63 -106 -105 -63 -64 105 106 64zm190 40l63 -106 -105 -63 -64 106 106 63zm376 -447l36 -60 -60 -36 -36 60 60 36zm-163 7l36 -61 -61 -36 -36 61 61 36zm-351 96l36 -60 -60 -37 -36 61 60 36zm218 -15l45 -75 -75 -46 -46 76 76 45zm208 53l45 -75 -75 -45 -46 75 76 45zm-144 150l51 -85 -85 -51 -51 85 85 51zm-193 -57l51 -85 -85 -51 -51 85 85 51zm-216 -14l51 -85 -85 -51 -51 85 85 51z"/>
</svg>
